<svg width="48" height="48" viewBox="0 0 48 48" fill="none" xmlns="http://www.w3.org/2000/svg">
<g filter="url(#filter0_d_485111_1129)">
<path d="M44 20C44 25.5228 41.7614 30.5228 38.1421 34.1421C34.5228 37.7614 29.5228 40 24 40C18.4772 40 13.4772 37.7614 9.85786 34.1421C6.23858 30.5228 4 25.5228 4 20C4 14.4772 6.23858 9.47715 9.85786 5.85786C13.4772 2.23858 18.4772 0 24 0C29.5228 0 34.5228 2.23858 38.1421 5.85786C41.7614 9.47715 44 14.4772 44 20Z" fill="#4D5AE5"/>
<g clip-path="url(#clip0_485111_1129)">
<path d="M31.9843 16.7039C31.9468 15.8538 31.8093 15.2693 31.6124 14.7629C31.4092 14.2253 31.0967 13.744 30.6872 13.3439C30.2871 12.9376 29.8026 12.6218 29.2713 12.4218C28.7619 12.2249 28.1805 12.0874 27.3303 12.0499C26.4738 12.0093 26.2019 11.9999 24.0296 11.9999C21.8573 11.9999 21.5854 12.0093 20.7321 12.0468C19.882 12.0842 19.2975 12.2218 18.7912 12.4187C18.2535 12.6218 17.7722 12.9344 17.3721 13.3439C16.9658 13.744 16.6501 14.2285 16.45 14.7598C16.2531 15.2693 16.1156 15.8506 16.0781 16.7007C16.0375 17.5572 16.0281 17.8291 16.0281 20.0014C16.0281 22.1737 16.0375 22.4456 16.075 23.299C16.1124 24.1491 16.25 24.7336 16.447 25.24C16.6501 25.7776 16.9658 26.2589 17.3721 26.659C17.7722 27.0653 18.2567 27.3811 18.788 27.581C19.2975 27.778 19.8788 27.9155 20.7291 27.9529C21.5823 27.9906 21.8543 27.9998 24.0266 27.9998C26.1989 27.9998 26.4708 27.9906 27.3241 27.9529C28.1742 27.9155 28.7587 27.778 29.265 27.581C30.3403 27.1653 31.1904 26.3152 31.6062 25.24C31.803 24.7305 31.9406 24.1491 31.9781 23.299C32.0156 22.4456 32.025 22.1737 32.025 20.0014C32.025 17.8291 32.0218 17.5572 31.9843 16.7039ZM30.5435 23.2364C30.509 24.0179 30.3778 24.4398 30.2684 24.7211C29.9995 25.4181 29.4463 25.9714 28.7493 26.2402C28.468 26.3496 28.043 26.4809 27.2646 26.5152C26.4207 26.5528 26.1676 26.562 24.0328 26.562C21.898 26.562 21.6417 26.5528 20.8009 26.5152C20.0195 26.4809 19.5975 26.3496 19.3162 26.2402C18.9693 26.112 18.6536 25.9088 18.3973 25.6432C18.1316 25.3837 17.9285 25.0712 17.8003 24.7243C17.6909 24.443 17.5596 24.0179 17.5253 23.2396C17.4877 22.3957 17.4784 22.1425 17.4784 20.0077C17.4784 17.8729 17.4877 17.6166 17.5253 16.7758C17.5596 15.9944 17.6909 15.5725 17.8003 15.2912C17.9285 14.9442 18.1316 14.6286 18.4005 14.3722C18.6598 14.1065 18.9724 13.9033 19.3194 13.7752C19.6007 13.6659 20.0258 13.5346 20.804 13.5002C21.6479 13.4627 21.9012 13.4533 24.0359 13.4533C26.1738 13.4533 26.4269 13.4627 27.2678 13.5002C28.0492 13.5346 28.4712 13.6659 28.7525 13.7752C29.0993 13.9033 29.4151 14.1065 29.6714 14.3722C29.937 14.6316 30.1402 14.9442 30.2684 15.2912C30.3778 15.5725 30.509 15.9975 30.5435 16.7758C30.581 17.6198 30.5904 17.8729 30.5904 20.0077C30.5904 22.1425 30.581 22.3925 30.5435 23.2364Z" fill="#F4F4FD"/>
<path d="M24.0297 15.8912C21.7606 15.8912 19.9195 17.7322 19.9195 20.0014C19.9195 22.2707 21.7606 24.1116 24.0297 24.1116C26.2989 24.1116 28.1398 22.2707 28.1398 20.0014C28.1398 17.7322 26.2989 15.8912 24.0297 15.8912ZM24.0297 22.6676C22.5576 22.6676 21.3635 21.4736 21.3635 20.0014C21.3635 18.5292 22.5576 17.3352 24.0297 17.3352C25.5019 17.3352 26.6958 18.5292 26.6958 20.0014C26.6958 21.4736 25.5019 22.6676 24.0297 22.6676Z" fill="#F4F4FD"/>
<path d="M29.262 15.7287C29.262 16.2586 28.8324 16.6882 28.3024 16.6882C27.7725 16.6882 27.3428 16.2586 27.3428 15.7287C27.3428 15.1987 27.7725 14.7692 28.3024 14.7692C28.8324 14.7692 29.262 15.1987 29.262 15.7287Z" fill="#F4F4FD"/>
</g>
</g>
<defs>
<filter id="filter0_d_485111_1129" x="0" y="0" width="48" height="48" filterUnits="userSpaceOnUse" color-interpolation-filters="sRGB">
<feFlood flood-opacity="0" result="BackgroundImageFix"/>
<feColorMatrix in="SourceAlpha" type="matrix" values="0 0 0 0 0 0 0 0 0 0 0 0 0 0 0 0 0 0 127 0" result="hardAlpha"/>
<feOffset dy="4"/>
<feGaussianBlur stdDeviation="2"/>
<feComposite in2="hardAlpha" operator="out"/>
<feColorMatrix type="matrix" values="0 0 0 0 0 0 0 0 0 0 0 0 0 0 0 0 0 0 0.25 0"/>
<feBlend mode="normal" in2="BackgroundImageFix" result="effect1_dropShadow_485111_1129"/>
<feBlend mode="normal" in="SourceGraphic" in2="effect1_dropShadow_485111_1129" result="shape"/>
</filter>
<clipPath id="clip0_485111_1129">
<rect width="16" height="16" fill="white" transform="translate(16 11.9999)"/>
</clipPath>
</defs>
</svg>
