<svg width="48" height="48" viewBox="0 0 48 48" fill="none" xmlns="http://www.w3.org/2000/svg">
<g filter="url(#filter0_d_297046_1359)">
<path d="M44 20C44 25.5228 41.7614 30.5228 38.1421 34.1421C34.5228 37.7614 29.5228 40 24 40C18.4772 40 13.4772 37.7614 9.85786 34.1421C6.23858 30.5228 4 25.5228 4 20C4 14.4772 6.23858 9.47715 9.85786 5.85786C13.4772 2.23858 18.4772 0 24 0C29.5228 0 34.5228 2.23858 38.1421 5.85786C41.7614 9.47715 44 14.4772 44 20Z" fill="#4D5AE5"/>
<g clip-path="url(#clip0_297046_1359)">
<path d="M35.9765 15.0561C35.9203 13.7809 35.7141 12.9042 35.4187 12.1445C35.1139 11.3381 34.6451 10.6162 34.0308 10.016C33.4307 9.40652 32.704 8.93292 31.9069 8.63294C31.1429 8.33753 30.2708 8.13131 28.9955 8.07509C27.7108 8.0141 27.303 8 24.0445 8C20.7861 8 20.3782 8.0141 19.0982 8.07033C17.823 8.12655 16.9463 8.33295 16.1868 8.62817C15.3803 8.93292 14.6583 9.40176 14.0582 10.016C13.4487 10.6162 12.9753 11.3429 12.6751 12.1399C12.3797 12.9042 12.1735 13.7761 12.1173 15.0513C12.0563 16.336 12.0422 16.7439 12.0422 20.0023C12.0422 23.2608 12.0563 23.6686 12.1125 24.9486C12.1687 26.2238 12.3751 27.1005 12.6705 27.8602C12.9753 28.6666 13.4487 29.3885 14.0582 29.9887C14.6583 30.5982 15.385 31.0718 16.1821 31.3718C16.9463 31.6672 17.8183 31.8734 19.0937 31.9296C20.3734 31.986 20.7815 31.9999 24.0399 31.9999C27.2984 31.9999 27.7062 31.986 28.9862 31.9296C30.2614 31.8734 31.1381 31.6672 31.8976 31.3718C33.5105 30.7482 34.7857 29.4729 35.4093 27.8602C35.7046 27.096 35.911 26.2238 35.9672 24.9486C36.0234 23.6686 36.0375 23.2608 36.0375 20.0023C36.0375 16.7439 36.0327 16.336 35.9765 15.0561ZM33.8153 24.8549C33.7636 26.027 33.5667 26.6599 33.4027 27.0819C32.9994 28.1274 32.1696 28.9572 31.124 29.3605C30.7021 29.5246 30.0645 29.7215 28.897 29.7729C27.6311 29.8293 27.2515 29.8433 24.0493 29.8433C20.847 29.8433 20.4626 29.8293 19.2013 29.7729C18.0292 29.7215 17.3963 29.5246 16.9743 29.3605C16.454 29.1682 15.9804 28.8634 15.596 28.4649C15.1975 28.0758 14.8928 27.6069 14.7005 27.0866C14.5364 26.6647 14.3395 26.027 14.288 24.8596C14.2316 23.5937 14.2177 23.2139 14.2177 20.0117C14.2177 16.8095 14.2316 16.425 14.288 15.1639C14.3395 13.9918 14.5364 13.3589 14.7005 12.9369C14.8928 12.4165 15.1975 11.943 15.6008 11.5584C15.9898 11.1599 16.4586 10.8552 16.9791 10.6631C17.4011 10.499 18.0388 10.3021 19.2061 10.2504C20.472 10.1942 20.8518 10.1801 24.0538 10.1801C27.2608 10.1801 27.6405 10.1942 28.9018 10.2504C30.0739 10.3021 30.7068 10.499 31.1288 10.6631C31.6491 10.8552 32.1227 11.1599 32.5071 11.5584C32.9056 11.9476 33.2104 12.4165 33.4027 12.9369C33.5667 13.3589 33.7636 13.9964 33.8153 15.1639C33.8715 16.4298 33.8856 16.8095 33.8856 20.0117C33.8856 23.2139 33.8715 23.589 33.8153 24.8549Z" fill="#F4F4FD"/>
<path d="M24.0445 13.837C20.6409 13.837 17.8793 16.5984 17.8793 20.0023C17.8793 23.4062 20.6409 26.1676 24.0445 26.1676C27.4484 26.1676 30.2098 23.4062 30.2098 20.0023C30.2098 16.5984 27.4484 13.837 24.0445 13.837ZM24.0445 24.0016C21.8364 24.0016 20.0453 22.2106 20.0453 20.0023C20.0453 17.794 21.8364 16.003 24.0445 16.003C26.2529 16.003 28.0438 17.794 28.0438 20.0023C28.0438 22.2106 26.2529 24.0016 24.0445 24.0016Z" fill="#F4F4FD"/>
<path d="M31.893 13.5934C31.893 14.3882 31.2486 15.0327 30.4535 15.0327C29.6587 15.0327 29.0142 14.3882 29.0142 13.5934C29.0142 12.7983 29.6587 12.1541 30.4535 12.1541C31.2486 12.1541 31.893 12.7983 31.893 13.5934Z" fill="#F4F4FD"/>
</g>
</g>
<defs>
<filter id="filter0_d_297046_1359" x="0" y="0" width="48" height="48" filterUnits="userSpaceOnUse" color-interpolation-filters="sRGB">
<feFlood flood-opacity="0" result="BackgroundImageFix"/>
<feColorMatrix in="SourceAlpha" type="matrix" values="0 0 0 0 0 0 0 0 0 0 0 0 0 0 0 0 0 0 127 0" result="hardAlpha"/>
<feOffset dy="4"/>
<feGaussianBlur stdDeviation="2"/>
<feComposite in2="hardAlpha" operator="out"/>
<feColorMatrix type="matrix" values="0 0 0 0 0 0 0 0 0 0 0 0 0 0 0 0 0 0 0.25 0"/>
<feBlend mode="normal" in2="BackgroundImageFix" result="effect1_dropShadow_297046_1359"/>
<feBlend mode="normal" in="SourceGraphic" in2="effect1_dropShadow_297046_1359" result="shape"/>
</filter>
<clipPath id="clip0_297046_1359">
<rect width="24" height="24" fill="white" transform="translate(12 8)"/>
</clipPath>
</defs>
</svg>
