<svg width="272" height="120" viewBox="0 0 272 120" fill="none" xmlns="http://www.w3.org/2000/svg">
<g filter="url(#filter0_d_297080_1800)">
<rect x="4" width="264" height="112" rx="4" fill="#F4F4FD"/>
<path d="M167.948 33.0481C167.822 32.663 167.489 32.3815 167.087 32.3227L163.267 31.767L161.557 28.3046C161.198 27.5749 160.002 27.5749 159.644 28.3046L157.934 31.767L154.113 32.3229C153.711 32.3815 153.378 32.6621 153.251 33.0482C153.127 33.4344 153.23 33.8589 153.521 34.1416L156.287 36.8372L155.634 40.6431C155.566 41.0431 155.73 41.4474 156.058 41.6864C156.39 41.9275 156.823 41.9573 157.182 41.7674L160.6 39.97L164.018 41.7674C164.173 41.8495 164.345 41.89 164.515 41.89C164.735 41.89 164.956 41.8218 165.142 41.6863C165.47 41.4474 165.635 41.043 165.565 40.643L164.913 36.8371L167.679 34.1415C167.968 33.8578 168.073 33.4343 167.948 33.0481ZM163.022 35.702C162.772 35.9463 162.656 36.3004 162.716 36.6461L163.098 38.8743L161.097 37.8226C160.941 37.7404 160.771 37.6999 160.6 37.6999C160.429 37.6999 160.26 37.7404 160.103 37.8226L158.102 38.8743L158.483 36.6461C158.543 36.3004 158.428 35.9474 158.177 35.702L156.557 34.1234L158.795 33.798C159.143 33.7479 159.442 33.5293 159.598 33.2145L160.599 31.1878L161.599 33.2145C161.755 33.5291 162.055 33.7479 162.402 33.798L164.64 34.1234L163.022 35.702Z" fill="#4D5AE5"/>
<path d="M156.267 65.0444H154.134V67.1778H156.267V65.0444Z" fill="#4D5AE5"/>
<path d="M156.267 69.3112H154.134V71.4446H156.267V69.3112Z" fill="#4D5AE5"/>
<path d="M158.4 67.1778H156.267V69.3112H158.4V67.1778Z" fill="#4D5AE5"/>
<path d="M154.134 67.1778H152V69.3112H154.134V67.1778Z" fill="#4D5AE5"/>
<path d="M148.8 76.778H146.667V78.9113H148.8V76.778Z" fill="#4D5AE5"/>
<path d="M148.8 81.0446H146.667V83.1781H148.8V81.0446Z" fill="#4D5AE5"/>
<path d="M150.934 78.9113H148.8V81.0448H150.934V78.9113Z" fill="#4D5AE5"/>
<path d="M146.667 78.9113H144.533V81.0448H146.667V78.9113Z" fill="#4D5AE5"/>
<path d="M136 72.5113H133.867V74.6447H136V72.5113Z" fill="#4D5AE5"/>
<path d="M136 76.778H133.867V78.9113H136V76.778Z" fill="#4D5AE5"/>
<path d="M138.133 74.6445H136V76.7779H138.133V74.6445Z" fill="#4D5AE5"/>
<path d="M133.867 74.6445H131.733V76.7779H133.867V74.6445Z" fill="#4D5AE5"/>
<path d="M115.733 36.2439H113.6V38.3773H115.733V36.2439Z" fill="#4D5AE5"/>
<path d="M115.733 40.5108H113.6V42.6442H115.733V40.5108Z" fill="#4D5AE5"/>
<path d="M117.866 38.3774H115.733V40.5108H117.866V38.3774Z" fill="#4D5AE5"/>
<path d="M113.6 38.3774H111.466V40.5108H113.6V38.3774Z" fill="#4D5AE5"/>
<path d="M153.43 52.3189C152.855 51.5434 152.011 51.0443 151.053 50.9098C150.091 50.7733 149.141 51.026 148.373 51.6138L145.87 53.5327L145.869 53.5338L142.073 56.368L139.358 55.2864C144.2 53.1136 147.585 48.2698 147.585 42.6462C147.585 35.0002 141.34 28.7793 133.663 28.7793C125.986 28.7793 119.74 35.0002 119.74 42.6462C119.74 45.4175 120.569 47.9945 121.981 50.163L116.453 50.115C116.45 50.115 116.447 50.115 116.443 50.115C116.426 50.115 116.412 50.1235 116.396 50.1247C116.291 50.1289 116.187 50.1503 116.086 50.1865C116.06 50.1962 116.034 50.2015 116.009 50.2132C115.997 50.2185 115.984 50.2195 115.971 50.2259L109.505 53.4185C109.504 53.4185 109.503 53.4185 109.503 53.4195L105.716 55.2405C105.674 55.2586 105.631 55.2831 105.59 55.3109C104.08 56.3156 103.566 58.289 104.393 59.9018C104.834 60.7594 105.583 61.391 106.505 61.68C106.86 61.7908 107.223 61.8453 107.584 61.8453C108.163 61.8453 108.737 61.7035 109.262 61.423L112.038 59.9467L116.566 57.6085L119.28 57.5925L108.396 68.4237C108.395 68.4248 108.394 68.4248 108.393 68.4258L105.716 71.0925C105.083 71.7219 104.735 72.557 104.735 73.4478C104.735 74.3374 105.083 75.1747 105.716 75.8052C106.365 76.4516 107.22 76.7758 108.074 76.7758C108.93 76.7758 109.783 76.4516 110.435 75.8052L113.063 73.1875L116.545 70.588L118.346 72.3821L114.823 75.8904C114.822 75.8916 114.821 75.8916 114.82 75.8926L112.142 78.5592C111.51 79.1886 111.162 80.0237 111.162 80.9145C111.162 81.8041 111.51 82.6414 112.142 83.2719C112.792 83.9183 113.647 84.2426 114.502 84.2426C115.356 84.2426 116.212 83.9183 116.862 83.2719L119.541 80.6052L123.826 76.3386C123.827 76.3374 123.827 76.3364 123.828 76.3353L125.847 74.3353L125.839 74.3278C125.852 74.315 125.87 74.3106 125.883 74.2969L136.215 62.9805L143.157 63.9682C143.207 63.9757 143.257 63.9789 143.307 63.9789C143.437 63.9789 143.561 63.948 143.682 63.9021C143.717 63.8894 143.748 63.8722 143.781 63.8552C143.819 63.836 143.86 63.8254 143.896 63.8009L150.323 59.5342C150.347 59.5182 150.359 59.4925 150.382 59.4755C150.407 59.4553 150.439 59.4468 150.463 59.4243L153.006 57.0424C154.329 55.8026 154.511 53.7717 153.43 52.3189ZM108.261 59.5403C107.914 59.7259 107.521 59.7632 107.144 59.6438C106.771 59.5275 106.468 59.2725 106.291 58.928C105.969 58.3008 106.155 57.537 106.719 57.1243L109.347 55.8602L109.979 57.7088L110.245 58.4853L108.261 59.5403ZM115.255 55.8849L112.158 57.4849L111.648 55.9915L111.281 54.9184L115.334 52.9172L115.255 55.8849ZM145.454 42.644C145.454 44.4808 145.015 46.2132 144.256 47.763L135.893 43.9646C135.806 42.8179 135.211 41.8142 134.317 41.189L137.245 31.4684C142 32.981 145.454 37.4173 145.454 42.644ZM121.876 42.644C121.876 36.1746 127.165 30.9105 133.665 30.9105C134.171 30.9105 134.665 30.9531 135.155 31.015L132.291 40.5224C132.253 40.5213 132.216 40.5106 132.177 40.5106C130.112 40.5106 128.432 42.1853 128.432 44.2441C128.432 46.3027 130.112 47.9775 132.177 47.9775C133.566 47.9775 134.766 47.2106 135.413 46.0883L143.138 49.5978C140.989 52.4906 137.549 54.3776 133.665 54.3776C127.165 54.3776 121.876 49.1135 121.876 42.644ZM133.789 44.2441C133.789 45.1262 133.065 45.8441 132.177 45.8441C131.288 45.8441 130.565 45.1262 130.565 44.2441C130.565 43.3619 131.288 42.644 132.177 42.644C133.065 42.644 133.789 43.3619 133.789 44.2441ZM108.93 74.2925C108.457 74.7608 107.692 74.7598 107.221 74.2936C106.994 74.0664 106.869 73.7668 106.869 73.4478C106.869 73.1299 106.994 72.8301 107.221 72.6051L109.145 70.6882L110.847 72.3832L108.93 74.2925ZM115.357 81.7594C114.885 82.2276 114.119 82.2288 113.648 81.7605C113.42 81.5333 113.295 81.2336 113.295 80.9146C113.295 80.5967 113.42 80.297 113.648 80.072L115.573 78.1541L116.378 78.9552L117.276 79.8491L115.357 81.7594ZM122.321 74.8217C122.32 74.8227 122.319 74.8227 122.318 74.8238L118.788 78.3438L117.982 77.5427L117.084 76.6488L120.611 73.1384C120.611 73.1384 120.611 73.1384 120.611 73.1374C120.612 73.1363 120.613 73.1363 120.614 73.1353C120.694 73.0553 120.744 72.9593 120.793 72.8644C120.807 72.8366 120.834 72.8131 120.845 72.7844C120.879 72.7023 120.884 72.6138 120.897 72.5272C120.903 72.4781 120.924 72.4324 120.924 72.3821C120.924 72.3106 120.899 72.2414 120.884 72.1709C120.871 72.1069 120.871 72.0417 120.847 71.98C120.806 71.8797 120.737 71.7912 120.664 71.7047C120.644 71.6812 120.636 71.6514 120.614 71.629C120.614 71.629 120.614 71.629 120.613 71.629C120.612 71.628 120.612 71.6257 120.611 71.6247L117.397 68.4247C117.363 68.3906 117.319 68.3767 117.281 68.3479C117.224 68.3042 117.17 68.2637 117.107 68.2327C117.046 68.2028 116.984 68.1847 116.92 68.1676C116.852 68.1483 116.786 68.1334 116.714 68.1281C116.649 68.1238 116.588 68.1302 116.523 68.1377C116.452 68.1462 116.385 68.1558 116.315 68.1782C116.248 68.1996 116.189 68.2326 116.127 68.2678C116.087 68.2902 116.042 68.2977 116.005 68.3254L112.458 70.973L110.657 69.1788L115.455 64.4065L124.176 72.9838L122.321 74.8217ZM135.958 60.7883C135.927 60.7841 135.899 60.7958 135.868 60.7937C135.79 60.7894 135.715 60.7948 135.637 60.8076C135.577 60.8182 135.519 60.8299 135.461 60.8502C135.393 60.8737 135.331 60.9057 135.268 60.9441C135.208 60.9803 135.154 61.0187 135.102 61.0667C135.076 61.0891 135.045 61.0998 135.022 61.1253L125.625 71.4167L116.969 62.9035L122.635 57.2671C123.053 56.8511 123.055 56.1759 122.639 55.7577C122.429 55.5476 122.152 55.4441 121.876 55.4452V55.4442L117.439 55.4709L117.494 52.2559L123.702 52.3093C126.232 54.8971 129.761 56.511 133.665 56.511C134.54 56.511 135.393 56.4204 136.224 56.2656C136.304 56.3296 136.383 56.3948 136.483 56.4353L141.302 58.3553L141.607 59.8721L141.964 61.6427L135.958 60.7883ZM144.041 61.1446L143.414 58.0288L146.307 55.8687L147.065 56.8735L148.201 58.3818L144.041 61.1446ZM151.548 55.4826L149.872 57.0528L148.01 54.5802L149.673 53.3056C149.983 53.0667 150.374 52.9696 150.758 53.0197C151.145 53.0741 151.486 53.2757 151.718 53.5882C152.152 54.1717 152.078 54.9856 151.548 55.4826Z" fill="#2E2F42"/>
<path d="M131.204 61.0881L126.918 56.8214C126.503 56.4065 125.829 56.4065 125.413 56.8214L121.128 61.0881C120.928 61.2897 120.815 61.5606 120.815 61.8443C120.815 62.1281 120.927 62.4001 121.128 62.6006L125.413 66.8673C125.621 67.0742 125.894 67.1777 126.166 67.1777C126.438 67.1777 126.711 67.0742 126.918 66.8673L131.204 62.6006C131.405 62.4001 131.519 62.1281 131.519 61.8443C131.519 61.5606 131.406 61.2886 131.204 61.0881ZM126.166 64.606L123.393 61.8443L126.166 59.0827L128.941 61.8443L126.166 64.606Z" fill="#2E2F42"/>
<path d="M138.328 34.1415L137.813 36.2131C137.955 36.2483 141.289 37.1166 141.289 40.5108H143.422C143.422 36.4765 140.091 34.5799 138.328 34.1415Z" fill="#2E2F42"/>
<path d="M143.422 42.644H141.289V44.7775H143.422V42.644Z" fill="#2E2F42"/>
</g>
<defs>
<filter id="filter0_d_297080_1800" x="0" y="0" width="272" height="120" filterUnits="userSpaceOnUse" color-interpolation-filters="sRGB">
<feFlood flood-opacity="0" result="BackgroundImageFix"/>
<feColorMatrix in="SourceAlpha" type="matrix" values="0 0 0 0 0 0 0 0 0 0 0 0 0 0 0 0 0 0 127 0" result="hardAlpha"/>
<feOffset dy="4"/>
<feGaussianBlur stdDeviation="2"/>
<feComposite in2="hardAlpha" operator="out"/>
<feColorMatrix type="matrix" values="0 0 0 0 0 0 0 0 0 0 0 0 0 0 0 0 0 0 0.25 0"/>
<feBlend mode="normal" in2="BackgroundImageFix" result="effect1_dropShadow_297080_1800"/>
<feBlend mode="normal" in="SourceGraphic" in2="effect1_dropShadow_297080_1800" result="shape"/>
</filter>
</defs>
</svg>
